<svg width="204" height="218" viewBox="0 0 204 218" fill="none" xmlns="http://www.w3.org/2000/svg">
<path fill-rule="evenodd" clip-rule="evenodd" d="M59.8889 1.1931C64.7225 0.994075 68.9398 0.569162 69.2599 0.248735C70.054 -0.546361 73.8738 0.714448 74.33 1.92152C74.5596 2.52854 74.9453 2.49869 75.3498 1.84291C75.7673 1.16623 76.5276 1.12045 77.4659 1.71454C78.7024 2.49769 78.6597 2.66388 77.1916 2.78229C74.1302 3.02809 73.6442 3.15546 72.8848 3.91672C72.4743 4.32671 72.6612 4.66306 73.2983 4.66306C75.1063 4.66306 74.66 8.42658 72.7188 9.55902C71.7616 10.1173 71.4486 10.587 72.0231 10.6039C72.5976 10.6198 73.4921 10.2128 74.011 9.69833C74.6053 9.10923 75.0367 10.18 75.1739 12.5881C75.323 15.1904 74.9254 16.5935 73.9314 16.9756C73.1273 17.2841 72.4703 18.4205 72.4703 19.5002C72.4703 20.5789 72.0429 21.7273 71.5201 22.0507C70.9973 22.3741 70.7637 23.1841 71.0013 23.8508C71.8799 26.3187 88.167 30.7487 94.167 31.7487C96.75 31.7487 99.2279 31.5831 101.441 31.4353C105.225 31.1824 108.234 30.9814 109.667 31.7487C110.313 32.1484 110.058 30.5855 109.615 27.8722C109.329 26.12 108.965 23.888 108.715 21.3949C108.274 17.0134 109.673 16.3736 115.825 18.1409C118.517 18.9141 120.504 18.9897 121.622 18.3638C122.558 17.8394 124.237 17.6493 125.353 17.9409C127.214 18.4285 127.337 18.1309 126.831 14.3565C126.472 11.6706 126.597 10.7402 127.19 11.6806C127.691 12.4727 128.108 14.656 128.117 16.5328C128.13 19.4962 129.125 20.8655 135.718 26.9815C143.227 33.9473 146.558 40.1002 146.558 44.2278C146.316 45.7876 147.06 46.4275 147.827 47.0878C148.3 47.4946 148.781 47.9092 149.047 48.5515C151.464 54.3949 169.737 64.8525 175.778 66.2487C175.812 66.2195 175.843 66.1919 175.872 66.1661C176.236 65.8425 176.277 65.8063 177.503 66.4368C178.828 67.1176 185.656 65.8215 191.935 64.6293C197.78 63.5198 203.15 62.5004 203.167 63.2487C203.681 64.6021 197.167 92.6723 186.167 96.6723C184.059 99.483 177.753 101.344 173.67 102.549C171.942 103.059 170.613 103.452 170.167 103.749C170.552 104.371 159.555 116.043 158.893 115.892C158.238 115.742 157.476 116.24 157.2 117C156.353 117 150.454 132.636 151.504 135.272C151.892 136.242 151.753 137.013 151.192 137.013C150.764 137.013 150.952 137.34 151.294 137.935C151.847 138.898 152.804 140.564 152.216 142.691C151.336 144.144 151.44 147.353 151.548 150.679C151.63 153.208 151.714 155.805 151.369 157.749C151.014 159.749 147.662 160.205 144.166 160.679C140.744 161.144 137.185 161.628 136.167 163.598L139.444 176.249C139.444 179.303 136.836 180.823 135.003 181.891C134.46 182.207 133.986 182.484 133.667 182.749C132.084 184.064 128.598 191.702 130.306 192.822C130.819 193.158 130.798 194.434 130.257 195.86C129.328 198.306 128.247 199.739 120.698 208.533C118.005 211.669 117.652 212.345 119.59 210.652C121.156 209.283 123.718 206.417 125.285 204.283C126.85 202.148 128.132 200.881 128.132 201.466C128.132 203.109 118.11 213.704 117.129 213.097C116.652 212.802 114.93 213.251 113.301 214.094C111.672 214.938 108.598 215.627 106.472 215.627C104.345 215.627 100.522 216.255 97.9761 217.022C95.4296 217.789 93.5977 218.009 93.9049 217.513C94.212 217.015 93.7637 216.34 92.9089 216.011C92.0551 215.683 91.3554 214.764 91.3554 213.969C91.3554 213.174 90.9051 212.803 90.3535 213.144C89.7521 213.517 89.7998 212.781 90.4717 211.305C91.7102 208.582 89.6209 201.487 86.1719 196.703C85.0627 195.164 84.1224 191.519 83.7328 187.249C83.2865 182.352 82.1176 178.269 79.7729 173.419C75.6718 164.937 77 163.5 81.7618 163.598C83.5 163 74.822 123.579 73.5209 123.579C72.9435 123.579 72.4793 123.239 72.4902 122.823C72.5011 122.406 71.8362 120.76 71.0112 119.163C69.8175 116.851 69.7121 115.206 70.4944 111.077C71.5012 105.761 71.7159 99.7083 70.8184 101.935C70.2131 103.437 52.4711 95.6383 51.5974 94.2233C50.504 94.2233 49.6095 94.6711 49.6095 95.2184C49.6095 95.7657 48.9207 96.2135 48.0788 96.2135C47.2369 96.2135 44.7302 97.1419 42.5087 98.2774C40.2862 99.4118 38.7655 99.8596 39.1273 99.2725C40.3598 97.2753 32.2959 97.6475 27.0846 99.8278C24.6246 100.857 23.8095 100.93 24.3363 100.076C24.8601 99.2277 24.5719 99.0585 23.3811 99.5163C22.4429 99.8765 21.918 99.779 22.2133 99.3003C22.9378 98.1271 20.3188 96.0364 19.292 96.9688C18.8448 97.3738 18.7563 97.2176 19.0952 96.6205C19.7015 95.5547 14.7984 91.2379 12.9814 91.2379C11.2281 91.2379 2.94256 79.5603 3.12743 78.4258C3.27255 77.5362 2.92566 76.8894 2.35613 76.9879C1.73789 77.0954 1.48741 75.747 1.73292 73.6394C1.9983 71.3576 1.66235 69.8002 0.779721 69.231C-0.151609 68.63 -0.246035 68.1135 0.48253 67.604C3.48128 65.5073 4.5289 52.0643 1.82337 50.3915C-0.0561905 49.2282 5.49899 47.1783 9.10604 47.7047C11.404 48.0401 11.8394 47.7425 11.8394 45.8369C11.8394 44.591 12.4765 43.2138 13.2568 42.7759C14.036 42.3381 14.8183 40.1886 14.9962 37.9994C15.3123 34.0866 15.3898 34.0139 19.5425 33.7134C24.8512 33.3283 24.9536 31.967 19.791 30.4186C15.8142 29.2254 14.9276 28.2174 16.8251 27.0432C17.3807 26.6989 18.667 25.7487 18.9412 24.7315C19.8397 24.0538 20.778 22.0606 21.0255 20.3013C21.273 18.5419 21.8256 14.7286 22.2759 13.6808L26.0817 11.5154C28.8628 9.93218 29.7573 8.85249 29.4045 7.50212C29.1391 6.4871 29.2961 5.88705 29.7543 6.17066C30.2126 6.45426 33.3147 5.55767 33.6228 5.05911C35.1555 6.90903 40.4254 6.37764 46.1307 3.8003C49.7496 2.16532 53.4889 1.45581 59.8889 1.1931ZM153.791 170.044C156.16 169.282 164.848 165.019 164.848 163.84C164.848 163.592 166.122 161.929 167.367 160.306C168.469 158.867 169.548 157.459 169.697 157.092C171.545 157.67 173.572 169.306 171.867 170.044C170.022 166.898 169.518 170.128 168.827 174.552C168.444 177.002 168.004 179.818 167.248 182.121C163.05 194.902 161.776 197.073 157.938 197.991C152.71 199.241 149.96 190.038 153.791 184.113C154.863 182.454 155.193 180.539 154.813 178.17C154.577 176.695 154.052 175.323 153.597 174.135C152.802 172.058 152.223 170.548 153.791 170.044Z" fill="black"/>
</svg>
