<svg width="307" height="262" viewBox="0 0 307 262" fill="none" xmlns="http://www.w3.org/2000/svg">
<path fill-rule="evenodd" clip-rule="evenodd" d="M87.8014 3.27148C86.3757 2.83992 86.2461 2.43426 87.1759 1.31598C88.6584 -0.46908 91.8738 -0.435192 95.0873 1.3997C96.4591 2.1831 98.5651 2.83992 99.7673 2.85985C101.812 2.89274 103.771 4.51833 102.861 5.42831C102.431 5.85688 90.8782 4.20238 87.8014 3.27148ZM188.63 14.5689C183.69 14.8908 178.89 13.5583 178.89 11.8639C178.89 11.2181 180.704 10.9858 183.629 11.2579C186.236 11.4991 189.64 11.7353 191.194 11.7812C195.834 11.9187 193.7 14.238 188.63 14.5689ZM274.144 100.072C274.067 98.427 273.65 96.2802 273.217 95.3014C272.545 93.7845 273.128 93.8921 277.145 96.027C280.679 97.9038 282.321 98.2875 283.689 97.5559C285.22 96.7377 285.489 96.94 285.348 98.8038C285.085 102.293 282.028 104.83 279.631 103.548C276.671 101.965 277.247 103.549 281.071 107.505C282.948 109.446 284.714 112.381 284.996 114.025C285.277 115.67 285.987 118.582 286.571 120.497C287.981 125.113 287.916 125.808 286.138 125.126C285.315 124.811 284.642 124.988 284.642 125.518C284.642 126.049 283.541 126.484 282.198 126.484C280.853 126.484 279.337 127.226 278.829 128.132C278.273 129.125 277.26 129.535 276.285 129.161C275.395 128.819 274.665 128.974 274.665 129.505C274.665 130.036 274.03 130.47 273.252 130.47C272.474 130.47 271.606 131.032 271.324 131.716C271.012 132.471 270.54 132.078 270.127 130.72C269.752 129.486 268.753 128.477 267.909 128.477C266.57 128.477 266.585 128.709 268.026 130.3C269.803 132.261 270.236 135.988 268.79 136.88C268.302 137.181 266.693 135.843 265.214 133.905L262.524 130.382L265.154 126.938C267.501 123.863 269.264 123.072 273.418 123.226C274.595 123.269 275.103 121.555 274.74 118.759C274.65 118.075 275.046 117.514 275.619 117.514C276.192 117.514 276.661 117.989 276.661 118.569C276.661 119.149 277.14 119.329 277.726 118.967C278.313 118.605 278.542 117.658 278.237 116.863C277.927 116.055 278.116 115.686 278.667 116.026C280.163 116.949 279.785 112.289 278.194 110.191C277.426 109.178 277.068 107.647 277.398 106.788C277.766 105.828 277.587 105.48 276.935 105.882C275.614 106.698 274.328 104.021 274.144 100.072ZM247.841 162.077C246.957 160.426 246.904 159.049 247.649 157.094C249.629 151.889 252.244 154.32 251.214 160.408C250.452 164.913 249.589 165.341 247.841 162.077ZM250.513 181.537C250.954 181.39 251.133 179.708 250.909 177.797C250.619 175.314 250.89 174.345 251.86 174.394C253.518 174.48 257.551 176.151 256.336 176.248C255.857 176.286 256 176.962 256.655 177.749C257.547 178.823 257.563 179.704 256.721 181.276C254.963 184.558 256.363 187.127 260.315 187.868C262.762 188.326 263.649 188.944 263.271 189.928C262.934 190.807 263.703 191.701 265.327 192.318C267.548 193.162 267.837 193.732 267.329 196.273C267.001 197.906 267.135 199.242 267.624 199.242C269.606 199.242 272.165 208.376 270.522 209.585C269.687 210.2 269.192 211.265 269.424 211.95C270.101 213.96 265.866 213.4 264.759 211.333C264.21 210.309 264.045 209.188 264.391 208.841C264.738 208.495 264.071 208.212 262.909 208.212C261.748 208.212 260.34 208.996 259.78 209.956C258.904 211.459 258.76 211.337 258.733 209.066C258.706 206.663 260.261 205.134 263.192 204.684C265.616 204.312 267.682 202.905 267.682 201.627C267.682 200.013 266.091 199.774 265.178 201.251C264.832 201.808 264.133 202.007 263.622 201.691C263.111 201.376 262.693 201.593 262.693 202.173C262.693 204.045 260.529 203.294 259.99 201.235C259.702 200.139 259.071 199.242 258.586 199.242C258.102 199.242 257.705 198.069 257.705 196.635V194.029L260.449 195.813C261.957 196.794 263.739 198.304 264.407 199.167C265.146 200.121 265.635 200.271 265.654 199.55C265.672 198.897 265.225 198.079 264.662 197.731C264.099 197.383 263.762 196.347 263.914 195.429C264.098 194.318 263.606 193.858 262.444 194.053C261.284 194.247 260.698 193.701 260.698 192.424C260.698 191.198 259.847 190.341 258.341 190.053C256.443 189.692 256.076 189.961 256.461 191.433C257.105 193.891 255.053 193.768 253.715 191.268C253.127 190.172 252.887 189.275 253.183 189.275C253.477 189.275 252.817 187.595 251.714 185.539C250.612 183.485 250.071 181.684 250.513 181.537ZM151.347 212.288C148.311 214.805 145.632 207.859 147.631 202.655C148.217 201.129 148.571 201.243 150.624 203.626C153.33 206.771 153.633 210.393 151.347 212.288ZM232.88 221.63C235.244 220.881 244.736 211.723 244.736 210.192C244.736 208.603 246.023 209.11 249.468 212.057L252.705 214.826L250.716 216.959C248.355 219.489 248.182 222.062 250.191 224.716C252.076 227.206 252.084 228.146 250.223 228.146C249.312 228.146 248.726 229.074 248.726 230.516C248.726 231.818 248.1 233.404 247.335 234.039C246.568 234.674 245.659 236.698 245.314 238.536C244.666 241.991 241.025 244.165 239.641 241.927C239.268 241.325 237.125 240.728 234.879 240.601C230.281 240.342 227.775 238.739 227.775 236.056C227.775 235.059 227.384 234.002 226.906 233.707C223.657 231.701 224.94 223.911 228.378 224.773C230.126 225.21 230.768 224.958 230.768 223.836C230.768 222.991 231.719 221.998 232.88 221.63ZM192.936 220.052C190.19 216.972 188.148 214.247 188.399 213.996C189.466 212.929 195.011 214.581 196.239 216.33C196.973 217.378 200.665 220.604 204.444 223.501C208.762 226.811 211.314 229.485 211.314 230.699C211.314 233.113 214.332 236.239 216.032 235.586C218.157 234.772 220.379 239.201 218.401 240.307C217.415 240.858 216.801 242.521 216.801 244.641C216.801 251.569 207.563 245.118 202.814 234.873C201.607 232.269 200.268 230.139 199.839 230.139C199.41 230.139 198.805 229.129 198.496 227.895C198.186 226.661 195.684 223.13 192.936 220.052ZM261.586 226.913C264.692 227.212 266.686 226.956 267.153 226.2C267.554 225.553 268.133 225.274 268.441 225.581C270.263 227.402 265.402 229.819 260.808 229.379C255.648 228.883 253.651 230.151 255.701 232.621C256.556 233.649 257.516 233.769 259.344 233.075C262.727 231.791 263.691 231.888 263.691 233.52C263.691 234.282 262.504 235.204 261.052 235.568C259.071 236.064 258.699 236.514 259.556 237.37C260.184 237.998 260.698 239.319 260.698 240.305C260.698 241.292 261.147 242.099 261.696 242.099C262.244 242.099 262.693 243.221 262.693 244.591C262.693 249.117 258.481 246.803 257.018 241.472C256.273 238.755 256.207 238.833 255.722 243.018C255.091 248.461 252.717 249.835 252.717 244.757C252.717 242.839 252.156 241.066 251.47 240.818C250.522 240.475 250.491 239.909 251.343 238.459C251.959 237.41 252.795 234.997 253.2 233.096C254.374 227.589 256.015 226.379 261.586 226.913ZM221.64 253.579C217.773 252.975 215.209 250.843 216.275 249.12C217.177 247.662 219.8 247.835 223.132 249.571C224.695 250.385 227.164 250.973 228.619 250.878C232.868 250.6 238.37 251.179 236.933 251.753C234.513 252.72 240.777 255.056 245.788 255.056C248.437 255.056 250.847 255.45 251.146 255.931C251.813 257.011 245.934 258.287 244.467 257.382C243.884 257.022 240.9 256.578 237.836 256.396C234.772 256.213 230.694 255.633 228.773 255.106C226.853 254.579 223.643 253.892 221.64 253.579ZM259.802 256.665C255.036 257.098 252.637 256.988 253.03 256.353C253.632 255.38 272.681 255.088 272.658 256.053C272.652 256.327 269.846 258.085 266.423 259.959C260.28 263.323 259.768 262.446 265.145 257.768C267.118 256.051 266.946 256.016 259.802 256.665ZM61 27C64.4329 26.6781 109.851 9.95823 110.808 9.19876C112.581 7.79244 112.786 7.79942 128.779 9.8476C138.711 11.1194 140.999 13.1636 135.363 15.7291C133.921 16.3859 132.994 17.1762 133.303 17.4852C133.614 17.7952 134.894 17.3297 136.149 16.4517C138.68 14.6805 141.442 14.2978 140.48 15.8516C140.097 16.4716 142.055 16.8573 145.659 16.8723C148.847 16.8862 153.437 17.3537 155.859 17.9118C159.131 18.6643 160.453 18.6204 160.999 17.7374C162.313 15.6124 172.504 17.3317 175.996 20.267C177.672 21.6763 179.421 22.8284 179.883 22.8284C180.345 22.8284 181.437 23.1025 182.312 23.4374C183.389 23.85 183.732 23.6089 183.378 22.6899C182.962 21.6115 184.236 21.3932 189.602 21.6235C194.447 21.8308 195.927 21.6244 194.853 20.8909C193.844 20.2022 193.763 19.8643 194.603 19.8533C196.554 19.8294 196.065 17.847 194.105 17.8301C193.144 17.8211 191.685 17.3736 190.862 16.8354C189.818 16.1526 190.709 16.0181 193.82 16.3909C196.27 16.6849 198.54 17.3546 198.864 17.8789C199.189 18.4032 202.347 19.1078 205.883 19.4447C209.419 19.7816 214.332 20.7354 216.801 21.5646C219.27 22.3929 224.882 23.1514 229.272 23.249C234.784 23.3726 238.312 23.9876 240.674 25.2394C243.398 26.6816 245.658 26.9607 251.774 26.6069C257.186 26.2939 259.987 26.5531 261.264 27.486C262.259 28.2135 263.523 28.8086 264.072 28.8086C264.621 28.8086 264.199 28.1497 263.133 27.3454C260.649 25.4677 268.034 25.2275 277.225 26.887C283.748 28.065 299.083 37.101 298.248 39.2757C297.997 39.9306 299.871 41.5004 302.441 42.7871C306.981 45.0605 307.026 45.1283 304.364 45.6824C301.035 46.3761 297.611 49.1858 297.611 51.224C297.611 53.0131 297.137 53.0788 294.475 51.6556C293.37 51.0655 291.716 50.927 290.799 51.3496C288.949 52.2008 287.926 52.444 285.484 52.6144C283.614 52.744 285.203 57.6646 287.136 57.7314C288.874 57.7922 295.236 63.6347 293.621 63.6876C292.606 63.7215 292.927 64.3643 294.618 65.6859C296.64 67.2657 296.781 67.6394 295.367 67.6574C293.582 67.6803 293.08 68.7996 294.306 70.0255C295.908 71.6262 295.339 80.6362 293.635 80.6362C293.181 80.6362 293.007 79.8518 293.248 78.892C293.556 77.6661 291.293 75.1355 285.63 70.3723C278.014 63.9686 274.474 59.1048 276.472 57.7952C277.807 56.9211 278.554 49.3094 277.492 47.4127C276.414 45.4891 274.506 45.1462 275.185 46.9981C275.901 48.9526 274.179 50.8692 272.341 50.1645C271.425 49.8127 270.675 49.125 270.675 48.6356C270.675 48.1463 269.328 47.7456 267.682 47.7456C266.036 47.7456 264.689 48.1572 264.689 48.6605C264.689 49.1639 264.417 50.2821 264.085 51.1463C263.681 52.1988 264.244 52.9971 265.791 53.5692C267.911 54.3526 267.791 54.4802 264.323 55.13C262.208 55.5267 260.032 55.4131 259.375 54.8729C258.699 54.3157 254.509 54.1393 249.462 54.4563L240.718 55.0054L239.092 60.5949C237.584 65.7736 237.496 67.4461 238.75 67.0055C239.024 66.9089 240.112 66.4952 241.168 66.0846C242.695 65.4916 242.956 65.6799 242.446 67.0075C242.07 67.9873 242.307 68.7248 243.021 68.7936C243.69 68.8584 245.584 69.0228 247.23 69.1604C248.876 69.2969 251.308 69.7644 252.636 70.1989C254.717 70.8817 254.952 70.7361 254.339 69.1414C253.669 67.3952 253.753 67.4002 255.869 69.2301C265.093 77.2046 269.701 82.4043 269.049 84.0997C268.545 85.4143 269.282 86.703 271.76 88.8369C273.633 90.4486 274.641 91.5031 274.002 91.1792C273.363 90.8552 272.577 91.1542 272.256 91.8429C271.801 92.8177 271.546 92.8257 271.1 91.8768C269.822 89.1599 260.639 77.1937 259.225 76.4033C257.021 75.1714 257.346 76.9216 259.931 80.2037C265.095 86.7618 261.854 103.413 255.677 102.058C252.699 101.404 251.248 103.253 251.631 107.214C251.746 108.402 251.109 109.782 250.214 110.283C248.834 111.054 249.139 111.611 252.234 113.969C258.353 118.632 261.339 124.784 257.955 125.756C256.995 126.032 255.463 126.565 254.553 126.941C253.361 127.434 252.707 126.976 252.219 125.31C250.723 120.202 249.159 117.514 247.685 117.514C245.646 117.514 243.738 115.546 243.738 113.444C243.738 111.186 240.446 110.461 237.388 112.046C234.637 113.472 233.761 113.081 233.761 110.429C233.761 107.386 232.363 107.606 229.061 111.168L225.873 114.608L228.216 115.498C229.504 115.988 230.757 116.977 231.001 117.698C231.339 118.706 231.768 118.74 232.851 117.851C234.309 116.653 239.397 117.138 240.275 118.557C240.549 119.001 239.981 119.615 239.011 119.923C234.191 121.45 234.531 124.116 240.316 130.174C243.773 133.796 245.668 136.579 245.394 137.632C245.153 138.556 245.58 139.551 246.343 139.843C250.933 141.603 241.279 162.279 235.811 162.398C234.958 162.417 232.464 163.298 230.27 164.358C228.075 165.417 225.718 166.298 225.032 166.317C223.524 166.358 223.371 168.967 224.823 169.864C227.165 171.311 223.756 176.627 221.132 175.62C219.373 174.947 219.409 171.42 221.18 170.741C222.889 170.086 222.145 166.701 220.122 165.926C217.219 164.812 212.811 168.861 212.811 172.638C212.811 173.428 215.25 176.804 218.231 180.142C225.021 187.744 226.713 194.333 222.677 197.451C221.366 198.463 219.051 200.402 217.533 201.758C214.392 204.565 212.811 204.896 212.811 202.748C212.811 200.973 204.665 192.265 203.005 192.265C202.362 192.265 201.836 191.816 201.836 191.268C201.836 190.72 201.439 190.272 200.953 190.272C199.697 190.272 198.446 201.366 199.618 202.118C200.141 202.455 200.921 203.851 201.349 205.222C201.777 206.592 204.082 209.434 206.471 211.536C209.975 214.619 210.815 216.005 210.815 218.703C210.815 220.543 211.21 222.292 211.694 222.59C212.177 222.889 212.786 224.248 213.046 225.611L213.521 228.089L210.556 226.373C206.493 224.022 203.242 219.518 201.859 214.327C201.222 211.934 199.615 208.892 198.288 207.566C196.227 205.507 195.888 204.253 195.967 198.96C196.019 195.464 195.407 191.242 194.563 189.275C193.741 187.356 192.556 184.498 191.931 182.923C190.844 180.188 190.707 180.135 188.907 181.764C185.996 184.396 183.399 183.369 183.28 179.538C183.225 177.761 182.44 175.49 181.534 174.49C180.629 173.49 179.888 172.196 179.888 171.612C179.888 171.029 179.195 170.285 178.347 169.96C177.499 169.635 176.138 167.774 175.323 165.826C173.988 162.635 173.688 162.435 172.304 163.819C171.459 164.664 169.213 165.354 167.314 165.354C164.928 165.354 163.672 165.893 163.245 167.099C162.905 168.058 161.46 169.997 160.034 171.407C158.608 172.818 155.492 176.069 153.111 178.633C150.729 181.197 148.455 183.295 148.056 183.295C147.658 183.295 147.308 186.798 147.281 191.08C147.213 201.726 141.818 210.29 139.003 204.225C127.686 179.852 124.581 171.636 125.643 168.87C126.261 167.261 124.408 165.913 123.53 167.332C122.434 169.104 119.456 168.426 117.036 165.853C115.5 164.22 115.163 163.361 116.058 163.361C116.809 163.361 115.937 162.266 114.122 160.928C112.307 159.59 110.206 157.618 109.454 156.546C108.252 154.831 106.919 154.604 98.3454 154.654C88.0825 154.713 83.1152 153.483 83.1152 150.882C83.1152 149.621 82.4079 149.449 79.4628 150.002C74.9354 150.85 68.3738 147.611 65.9016 143.308C64.2505 140.433 60.8924 139.458 59.6374 141.488C59.2802 142.065 60.6001 144.605 62.5715 147.133C64.5428 149.66 66.162 152.215 66.17 152.81C66.179 153.405 66.579 153.272 67.0609 152.512C67.7593 151.411 68.1683 151.565 69.0872 153.281C69.7197 154.462 69.99 155.83 69.6868 156.32C67.6226 159.656 76.406 157.692 78.6736 154.31C81.1019 150.69 81.8991 150.653 82.3011 154.142C82.5206 156.05 83.5671 157.358 85.751 158.447C91.8257 161.481 93.3681 169.341 87.888 169.341C87.458 169.341 87.1058 170.081 87.1058 170.985C87.1058 173.23 80.9094 179.073 77.664 179.886C76.2094 180.251 74.3199 181.615 73.4659 182.919C72.6109 184.222 71.4466 185.288 70.879 185.288C70.3113 185.288 67.5568 186.359 64.7583 187.667C56.5067 191.524 53.1569 193.126 51.3952 192.073C50.154 191.33 49.7011 189.27 48.8776 185.752C47.4979 179.855 44.4889 174.383 39.7072 169.075C38.3414 167.558 37.223 165.183 37.223 163.797C37.223 162.411 36.2124 160.245 34.9783 158.985C33.7432 157.724 31.8815 155.165 30.84 153.3C28.0336 148.267 26.2837 146.539 24.1617 146.699C21.9229 146.867 21.915 146.901 23.4194 149.722C24.4839 151.718 24.436 151.781 22.8547 150.477C18.0191 146.491 16.0068 136.99 19.9286 136.666C21.268 136.555 22.0495 136.52 22.6031 136.147C23.442 135.582 23.7574 134.24 24.6974 130.679C26.8105 122.677 24.4949 117.671 20.5182 121.644C19.6603 122.501 18.6027 122.465 16.2722 121.5C14.239 120.659 12.8303 120.553 12.1878 121.195C11.1502 122.232 4.30033 120.615 4.30033 119.335C4.30033 118.96 3.53313 117.886 2.59433 116.948C1.65654 116.012 0.763634 114.425 0.610992 113.424C0.458351 112.423 0.227892 111.25 0.0991942 110.821C-0.695938 108.154 3.46629 104.791 6.25873 105.844C8.43262 106.665 10.1476 106.586 13.384 105.518C18.5748 103.807 19.6792 103.807 24.7283 105.512C36.0657 109.344 36.6008 105.786 28 100C23.8296 97.1938 25.7259 97.7491 29.7341 98.9229C31.3889 99.4076 33.4036 99.9976 35.5 100.5L35.7068 100.55C43.9077 102.514 47.4727 103.368 56.0258 117.649C58.3673 121.558 60.3776 122.462 66.7816 122.483C73.9008 122.507 76.823 114.879 71.265 110.781C69.5361 109.506 68.4437 107.944 68.74 107.172C69.2727 105.786 62.352 99.5732 60.2749 99.5732C56.6633 99.5732 59.5115 92.6193 64 91.5C63 66.5 62 46 61 27Z" fill="black"/>
</svg>
