<svg width="173" height="148" viewBox="0 0 173 148" fill="none" xmlns="http://www.w3.org/2000/svg">
<path fill-rule="evenodd" clip-rule="evenodd" d="M64.7382 1.26474C68.2377 1.18864 74.1864 0.452301 74.5906 0.0460804C74.6911 -0.0547334 77.2747 0.0154409 80.3342 0.202243C86.261 0.562998 87.6707 1.90718 83.1567 2.89555C78.8059 3.84834 78.2643 4.14979 80.7503 4.23282C83.6913 4.33166 83.092 6.66026 80.0116 7.10799C78.7104 7.29776 77.2279 6.70078 76.4812 5.68671C75.2686 4.04108 75.1153 4.0648 73.8329 6.10183C72.245 8.62613 70.7685 8.79316 67.1316 6.85892C65.678 6.087 63.7057 5.21131 62.747 4.91381C59.3779 3.86811 60.7518 1.35172 64.7382 1.26474ZM159.086 14.9408C161.935 15.2591 163.618 15.1009 163.272 14.5465C162.94 14.0118 164.14 13.7864 166.109 14.0147C169.625 14.4229 171.067 17.1459 167.782 17.1745C166.296 17.1874 166.259 17.3287 167.533 18.1352C168.562 18.7856 167.884 18.8983 165.356 18.495C156.916 17.1488 149.478 25.7398 156.831 28.3412C159.587 29.3177 158.856 30.7656 155.835 30.312C148.766 29.2514 144.791 27.7452 144.318 25.9503C144.047 24.9194 144.198 24.3046 144.655 24.5853C145.112 24.866 145.773 24.1999 146.123 23.1048C146.473 22.0097 147.177 21.1132 147.688 21.1132C148.199 21.1132 148.617 20.446 148.617 19.6306C148.617 18.8152 149.092 18.1481 149.671 18.1481C150.251 18.1481 150.452 17.7083 150.117 17.1706C149.756 16.5904 150.203 16.458 151.217 16.8444C152.266 17.2437 152.682 17.1044 152.295 16.4817C151.901 15.8501 152.684 15.6297 154.371 15.8976C156.325 16.2069 156.695 16.0587 155.701 15.3668C154.766 14.7165 155.856 14.5791 159.086 14.9408ZM45.3529 58.0259C44.3962 57.6414 44.3962 57.2451 45.3529 56.1648C46.9758 54.3333 48.7101 54.3699 49.4379 56.2518C49.7634 57.0958 49.6997 57.6206 49.2955 57.419C48.8903 57.2174 46.9917 58.525 45.0752 60.3258C41.8484 63.3552 41.7569 63.5983 43.8307 63.6052C46.2281 63.6141 46.5516 64.2951 45.1777 66.4478C44.21 67.9649 46.9598 71.5359 48.4652 70.7166C48.96 70.4467 49.0685 70.7027 48.7061 71.2839C48.3447 71.866 49.4249 73.7093 51.1075 75.3797C52.8667 77.1261 53.8623 78.9062 53.4491 79.5684C53.0031 80.287 53.1654 80.455 53.8812 80.0152C54.3692 79.716 54.6915 79.6151 54.8652 79.6556C54.7342 78.8546 54.6108 77.5482 54.536 76.03C54.3399 72.0677 54.6535 71.023 56.3062 70.1453C57.4103 69.5582 58.0087 68.5876 57.6343 67.9867C57.253 67.3739 57.4063 67.1723 57.9838 67.5261C59.302 68.3356 65.2088 65.4357 65.9027 63.6388C66.1945 62.8857 66.9093 62.5635 67.4927 62.9213C68.1637 63.3334 68.3121 62.9499 67.8969 61.8756C67.5365 60.9426 67.5724 60.3436 67.9766 60.5442C68.3818 60.7449 69.8324 59.8138 71.2013 58.4746C73.6584 56.0719 73.6614 56.0472 71.4502 56.5868C68.9722 57.1897 68.338 55.6103 70.6975 54.7119C71.5159 54.3995 71.9838 53.8213 71.7369 53.425C71.491 53.0287 71.8295 52.6659 72.4896 52.6195C74.6779 52.4643 77.9196 51.557 79.8003 50.5736C80.8207 50.0408 83.4471 49.1454 85.6374 48.585C90.3645 47.3752 103.017 47.7607 103.92 49.1424C104.796 50.4807 114.683 52.7104 116.565 51.9939C117.408 51.6726 117.846 51.813 117.539 52.3072C117.232 52.8004 118.664 53.7433 120.723 54.4025C122.781 55.0608 124.914 55.8683 125.461 56.1964C126.009 56.5245 126.756 56.7993 127.121 56.8082C127.485 56.8161 128.157 57.2283 128.614 57.7224C129.088 58.2374 128.956 58.3451 128.304 57.9755C127.677 57.6197 126.939 57.9093 126.664 58.6189C126.299 59.5667 126.999 59.7862 129.298 59.4462C131.021 59.1902 131.871 58.7919 131.186 58.5616C130.502 58.3303 129.942 57.5475 129.942 56.823C129.942 56.0986 129.382 55.3069 128.697 55.0637C126.789 54.3877 128.048 53.7047 132.431 53.0376C134.691 52.6936 135.838 52.7875 135.085 53.254C134.017 53.9162 134.066 54.195 135.334 54.6773C136.201 55.0084 136.911 55.7843 136.911 56.404C136.911 57.0227 136.216 57.2638 135.366 56.9397C134.479 56.6026 134.08 56.7687 134.429 57.3281C135.42 58.9204 137.906 58.441 137.906 56.658C137.906 55.7526 138.153 55.2565 138.455 55.5559C138.757 55.8554 141.226 55.2624 143.942 54.2375C149.519 52.1342 151.258 51.9069 150.326 53.4033C149.905 54.0803 150.645 54.192 152.49 53.7324C154.032 53.3489 156.551 53.0346 158.088 53.0346C159.918 53.0346 160.44 52.7549 159.599 52.2271C158.893 51.7833 156.911 51.6746 155.195 51.9859C153.477 52.2983 151.811 52.1322 151.491 51.6183C151.16 51.0865 151.968 50.8849 153.368 51.1508C154.721 51.4077 155.827 51.1705 155.827 50.624C155.827 50.0527 158.366 49.688 161.793 49.7671C165.823 49.86 167.76 50.3057 167.766 51.1399C167.77 51.8199 168.217 52.3754 168.759 52.3754L172.503 117.146C169.498 117.695 168.77 117.529 168.77 116.293C168.77 113.7 167.344 113.666 161.982 116.132C155.752 118.997 155.403 122.697 161.157 124.843C162.302 125.27 162.779 126.111 162.413 127.057C162.088 127.896 162.22 128.34 162.704 128.043C163.72 127.418 164.947 129.969 164.055 130.854C162.727 132.171 158.752 131.32 157.587 129.468C156.679 128.024 155.265 127.492 152.345 127.492C146.521 127.492 142.528 126.102 137.701 122.395C135.35 120.589 133.219 118.975 132.966 118.809C132.713 118.643 133.053 117.637 133.721 116.575C135.068 114.434 134.335 114.163 130.19 115.265C127.54 115.971 127.198 117.598 129.693 117.63C131.495 117.652 127.517 121.489 125.64 121.54C123.636 121.593 121.609 118.445 123.06 117.534C123.843 117.041 123.97 116.643 123.346 116.634C122.729 116.626 120.826 116.342 119.114 116.002C116.554 115.494 116.003 115.698 116.003 117.159C116.003 118.136 115.373 119.637 114.603 120.495C111.905 123.502 112.159 129.763 115.008 130.463C118.078 131.217 112.229 132.405 105.359 132.423C100.159 132.436 99.1347 133.886 102.479 136.499C105.352 138.742 105.818 141.098 103.558 141.959C102.737 142.273 102.065 143.122 102.065 143.846C102.065 145.015 100.595 145.148 95.8712 144.407C95.0597 144.279 90.5646 130.405 90.927 129.148C91.0565 128.699 90.7538 128.584 90.255 128.89C89.7562 129.195 88.8134 128.807 88.1593 128.025C87.5062 127.243 85.4393 126.102 83.5666 125.489C81.6939 124.875 80.1617 123.741 80.1617 122.967C80.1617 121.696 79.5922 121.414 77.4626 121.634C77.0733 121.675 76.4332 120.896 76.0389 119.905C75.3997 118.295 75.3161 118.327 75.2534 120.208C75.1787 122.457 78.6703 125.501 85.8863 129.477C90.6771 132.117 91.4308 134.41 87.5072 134.41C85.3607 134.41 85.1058 134.661 86.0725 135.818C87.4912 137.516 83.7528 143.905 80.9074 144.645C79.9476 144.894 79.3851 144.742 79.6569 144.306C79.9277 143.869 79.4578 143.249 78.6105 142.926C77.6528 142.561 77.3242 142.746 77.7414 143.415C78.1715 144.107 77.608 144.065 76.1653 143.298C73.5907 141.931 75.0085 140.382 78.8584 140.355C81.8442 140.334 82.9444 138.243 80.6535 136.942C78.5259 135.735 74.4051 131.596 72.1252 128.378C70.4845 126.061 68.2145 126.475 68.2145 129.091C68.2145 129.906 68.6197 130.324 69.1155 130.021C69.6113 129.716 69.9269 131.203 69.8174 133.324C69.6084 137.356 67.8621 140.34 65.7106 140.34C64.0241 140.34 62.8791 137.217 64.256 136.372C64.8932 135.982 65.0684 134.618 64.6802 133.081C64.269 131.458 64.4253 130.457 65.0884 130.457C65.6787 130.457 65.9008 129.784 65.5832 128.961C65.2646 128.139 65.4995 126.875 66.1029 126.152C66.7072 125.43 66.8695 124.475 66.4633 124.031C66.0581 123.586 66.5091 123.502 67.4678 123.843C68.4266 124.185 69.2101 124.086 69.2101 123.622C69.2101 123.16 68.3141 122.548 67.2189 122.263C66.1238 121.979 65.2277 122.098 65.2277 122.527C65.2277 122.956 64.2869 123.552 63.136 123.85C61.9861 124.149 61.321 124.838 61.6595 125.38C61.997 125.923 61.7491 126.688 61.108 127.081C60.432 127.496 60.207 127.371 60.5743 126.782C60.9437 126.189 59.6853 125.522 57.5447 125.177C55.2672 124.81 54.2391 124.602 53.7352 125.023C53.2806 125.402 53.2524 126.292 53.1183 128.038C52.9421 130.334 52.3945 130.983 50.5337 131.098C47.9223 131.259 45.2541 134.085 45.5398 136.387C45.6414 137.202 45.1735 138.86 44.5014 140.071C43.463 141.941 43.5058 142.186 44.7892 141.697C45.6205 141.38 46.0556 140.729 45.7559 140.248C45.4572 139.768 45.959 139.659 46.8719 140.007C48.209 140.516 48.4002 140.225 47.8526 138.513C47.4464 137.244 47.6007 136.387 48.2359 136.387C48.8203 136.387 49.2982 136.758 49.2982 137.21C49.2982 137.664 49.9702 138.034 50.7916 138.034C52.6006 138.034 52.7708 136.724 51.0405 136.11C50.3565 135.868 50.0768 135.366 50.4202 134.996C51.2038 134.153 56.2674 133.2 56.2674 133.896C56.2674 136.083 44.139 143.922 42.4037 142.857C41.9298 142.566 41.2737 143.024 40.9452 143.874C40.5599 144.871 39.6698 145.205 38.4363 144.817C35.9612 144.036 31.2182 145.216 31.9709 146.424C32.3183 146.982 33.0999 146.902 33.9212 146.225C34.6759 145.603 35.8328 145.274 36.4939 145.493C37.1539 145.711 36.2529 146.482 34.4907 147.207C30.9703 148.655 26.3856 147.434 26.4145 145.056C26.4254 144.19 26.7301 144.26 27.3951 145.282C28.2195 146.549 28.3628 146.514 28.3758 145.035C28.3847 143.943 27.6351 143.305 26.3408 143.305C25.7522 143.305 25.6602 143.468 25.5518 143.66C25.4526 143.835 25.3398 144.035 24.8205 144.156C23.1828 144.367 22.3675 141.105 21.8244 138.933C21.733 138.568 21.6494 138.233 21.5709 137.951C21.0263 135.992 20.9427 134.611 21.3857 134.883C22.6232 135.642 23.2843 131.895 22.6899 127.495C22.3246 124.796 22.5316 123.538 23.3401 123.538C23.9922 123.538 24.2948 123.166 24.0121 122.713C23.7293 122.259 25.607 122.232 28.1846 122.653C30.7622 123.075 34.8004 123.447 37.1589 123.479L41.4479 123.538L41.1413 119.337C40.9491 116.699 40.3866 115.224 39.627 115.372C38.9251 115.509 38.6583 114.987 38.9908 114.126C39.4 113.069 39.1033 112.819 37.9594 113.255C37.0773 113.591 36.3555 113.374 36.3555 112.772C36.3555 112.17 35.6506 111.678 34.7894 111.678C33.8247 111.678 33.3607 111.012 33.5808 109.948C33.8386 108.703 34.8173 108.257 37.0753 108.358C39.5653 108.467 39.9695 108.238 39.0366 107.246C38.3885 106.558 37.1848 106.204 36.3605 106.459C35.0572 106.862 35.0522 106.789 36.3216 105.898C37.3491 105.176 38.2172 105.222 39.2507 106.051C40.4026 106.975 40.5589 106.963 39.9725 105.994C39.5065 105.226 39.7883 104.759 40.7182 104.759C41.5395 104.759 42.4625 105.162 42.7691 105.654C43.5218 106.864 48.2847 104.602 48.2947 103.029C48.2986 102.35 48.7656 101.794 49.3311 101.794C49.8976 101.794 51.9067 100.259 53.7973 98.382C55.904 96.2906 58.6777 94.7013 60.9656 94.2754C64.0639 93.6982 64.3616 93.4501 62.7218 92.8146C61.6366 92.3935 61.2792 92.0179 61.9293 91.9794C62.7119 91.9339 62.9259 90.7726 62.5615 88.5468C61.9373 84.7257 64.6324 82.3803 68.3151 83.5407C70.144 84.1169 70.2107 83.9844 69.0339 82.1125C67.5007 79.6771 65.9416 79.4883 64.2321 81.5323C62.6641 83.4082 60.2806 83.4211 57.6154 81.5669C56.4705 80.7713 55.3624 80.283 55.1533 80.4827C55.0929 80.5409 55.0265 80.4134 54.9596 80.1382C54.7762 80.6021 54.1889 81.3261 53.2888 82.0047C52.3311 82.7272 50.7361 83.3321 49.7455 83.3489C48.7549 83.3667 48.1526 83.7146 48.4054 84.1218C48.6593 84.529 47.2296 84.8819 45.2295 84.9056C43.2283 84.9283 39.911 85.3118 37.8571 85.7566C35.2934 86.3121 34.1236 86.2211 34.1236 85.467C34.1236 84.8631 34.6841 84.4806 35.3681 84.616C36.0531 84.7524 36.5011 84.3076 36.3637 83.6276C36.2273 82.9486 36.4513 82.4446 36.8615 82.5088C38.7113 82.7994 39.4859 82.2904 38.3161 81.554C36.5997 80.4728 38.4535 75.4736 40.5701 75.4736C42.3582 75.4736 42.5822 73.9169 40.9385 72.9088C40.2266 72.4709 40.0594 72.637 40.5004 73.3437C40.9255 74.0266 40.5631 74.4852 39.5994 74.4852C38.5998 74.4852 38.2553 74.0167 38.6914 73.2498C39.2191 72.3217 39.0508 72.3306 38.0144 73.2873C37.2568 73.9881 36.5867 75.1 36.527 75.7582C36.4673 76.4175 36.3498 77.734 36.2661 78.6858C36.1755 79.7265 35.2954 80.4154 34.0579 80.4154C32.9269 80.4154 31.0582 80.9165 29.9053 81.5293C26.8847 83.1344 24.317 79.8442 26.9295 77.7152C27.8753 76.9453 28.1391 76.5657 27.5169 76.8721C26.8946 77.1775 26.1519 76.543 25.8672 75.4607C25.5824 74.3795 25.7557 73.7429 26.2515 74.0484C26.7483 74.3528 27.1545 74.1304 27.1545 73.5552C27.1545 72.9799 27.6343 72.5085 28.2207 72.5085C28.8081 72.5085 29.9859 71.8156 30.8382 70.9686C31.6914 70.1226 33.0036 69.664 33.7543 69.9496C34.5049 70.2352 35.1192 70.0385 35.1192 69.5127C35.1192 68.9859 34.6164 68.555 34.0022 68.555C33.2375 68.555 33.2814 68.0796 34.1425 67.0497C35.2029 65.7816 35.1262 65.6492 33.6507 66.2116C32.0866 66.8076 32.0339 66.6267 33.1609 64.5047C34.7966 61.4249 36.3687 60.4533 37.3175 61.9359C37.8959 62.8392 38.0791 62.8264 38.0911 61.8835C38.099 61.2045 39.002 60.648 40.0972 60.648C41.1923 60.648 42.0884 60.2033 42.0884 59.6597C42.0884 59.1161 43.0969 58.6357 44.3285 58.5932C45.56 58.5507 46.022 58.2957 45.3529 58.0259ZM1.66105 42.038C1.19611 42.7852 1.43008 42.8969 2.35897 42.3711C3.51087 41.7188 3.53078 41.8215 2.47147 42.9513C1.37631 44.1195 1.04379 44.1047 0.225406 42.8494C-0.415757 41.865 0.225347 46 3.26059 48.6947C3.26059 50.4876 12.5608 50.9225 17.0549 49.3401C19.4414 48.5 21.7004 48.0008 22.0757 48.2321C23.4307 49.0633 23.0325 44.5544 21.6277 43.1598C20.4868 42.0271 18.9974 41.9105 14.4226 42.5984C10.2501 43.225 7.78695 43.1124 5.50903 42.1892C3.18332 41.2473 2.17777 41.2078 1.66105 42.038ZM93.1044 77.0995C94.2822 77.8674 94.33 78.245 93.3304 78.8864C91.9246 79.7888 90.9002 83.0692 90.7279 87.2154C90.6483 89.1378 90.0877 89.9335 88.8144 89.9335C87.8208 89.9335 87.3001 90.394 87.6535 90.9614C88.0687 91.6285 87.3847 91.7629 85.7012 91.3439C84.2765 90.988 81.7327 91.2638 80.0502 91.9557C77.588 92.9687 76.8394 92.9707 76.2141 91.9655C75.6267 91.0226 74.9358 90.9841 73.3847 91.8084C70.4486 93.368 69.4849 93.1545 71.7578 91.4476C73.982 89.7773 77.1749 89.4669 77.1749 90.9218C77.1749 91.4654 77.6229 91.9102 78.1705 91.9102C79.6031 91.9102 79.399 89.203 77.9216 88.611C77.2376 88.3372 77.9086 88.0773 79.415 88.0348C81.1503 87.9854 82.1529 87.4141 82.1529 86.4742C82.1529 85.6587 82.6277 84.9916 83.2072 84.9916C83.7866 84.9916 83.925 85.5481 83.5138 86.2271C83.0061 87.0662 83.3057 87.0276 84.4507 86.1065C86.2587 84.6506 86.7396 82.0265 85.1984 82.0265C84.6827 82.0265 83.9549 82.5187 83.5805 83.1206C83.0927 83.9044 82.6915 83.8797 82.1628 83.0317C80.7909 80.8276 85.6812 77.1924 89.3351 77.7004C91.7842 78.0414 92.2313 77.9 91.1132 77.141C89.2007 75.8422 91.1132 75.8027 93.1044 77.0995Z" fill="black"/>
</svg>
