<svg width="348" height="215" viewBox="0 0 348 215" fill="none" xmlns="http://www.w3.org/2000/svg">
<path d="M294 1.99999C289.884 2.93799 273.998 3.03199 258.5 2.20999C243.665 1.42299 218.515 3.57499 220.108 5.49499C221.466 7.13199 219.884 7.34899 218.281 5.74599C216.843 4.30799 207 6.50599 207 8.26499C207 10.297 209.264 11.865 212.2 11.865C213.74 11.865 215 12.351 215 12.944C215 13.624 213.887 13.78 212 13.365C210.113 12.95 209 13.106 209 13.786C209 14.379 207.762 14.858 206.25 14.85C204.211 14.838 203.871 14.599 204.936 13.926C206.126 13.173 206.147 12.748 205.063 11.441C203.086 9.05799 199.636 9.36499 200.29 11.865C200.643 13.214 200.32 13.865 199.299 13.865C198.394 13.865 198.008 14.443 198.338 15.303C198.694 16.231 198.14 16.851 196.773 17.053C193.551 17.528 193.332 19.865 196.51 19.865C198.346 19.865 199.352 19.237 199.71 17.865C199.998 16.765 200.856 15.865 201.617 15.865C203.341 15.865 203.439 17.541 201.75 18.145C199.73 18.866 201.435 19.884 205.545 20.41C210.198 21.006 211.373 21.865 207.535 21.865C201.386 21.865 194.89 28.665 198.959 30.843C199.937 31.366 201.021 31.51 201.369 31.163C201.716 30.816 202 31.234 202 32.091C202 33.478 199.902 35.038 197.714 35.279C197.281 35.326 196.518 36.027 196.018 36.836C195.518 37.645 194.747 37.921 194.304 37.449C193.862 36.977 194.063 36.39 194.75 36.145C196.932 35.365 196.23 32.572 193.999 33.155C192.898 33.443 192.249 33.27 192.558 32.772C192.866 32.273 192.754 31.865 192.309 31.865C188.393 31.865 191.955 25.751 196.75 24.243C203.163 22.225 203.495 20.865 197.573 20.865C194.15 20.865 192.732 21.386 191.323 23.162C188.671 26.503 186.181 27.872 188.327 24.808C189.247 23.495 190 22.07 190 21.642C190 20.208 183.161 20.847 181.579 22.429C180.719 23.289 179.593 23.731 179.077 23.412C178.561 23.093 177.837 23.32 177.469 23.915C176.394 25.654 180.208 27.941 183.276 27.397L186.051 26.905L183.517 29.439C182.124 30.832 180.584 31.726 180.096 31.424C179.608 31.122 177.924 31.545 176.354 32.364C174.784 33.183 173.893 33.855 174.372 33.859C174.852 33.862 174.716 34.502 174.07 35.281C172.732 36.893 164.474 36.739 162.806 35.071C162.12 34.385 162.983 34.217 165.469 34.552C168.263 34.929 169.481 34.606 170.541 33.206C171.884 31.434 171.94 31.44 172.038 33.365L172.141 35.365L173 33.365C174.266 30.42 174.193 30.149 171.981 29.57C169.364 28.886 171.124 24.327 174.328 23.489C177.919 22.55 175.335 21.633 171.109 22.347C168.209 22.836 166.892 23.629 166.4 25.179C165.727 27.3 165.704 27.296 164.807 24.873C164.164 23.133 163.668 22.783 163.116 23.678C162.288 25.017 157.972 23.917 155.278 21.681C153.607 20.294 141.878 19.456 141.098 20.668C140.769 21.178 138.572 22.574 136.216 23.768C129.92 26.96 132.534 29.914 139.598 27.588C143.672 26.247 144.065 26.254 143.528 27.652C143.201 28.506 143.51 29.572 144.216 30.02C145.144 30.609 144.986 30.839 143.643 30.85C142.406 30.86 141.978 31.366 142.362 32.365C143.097 34.281 140.985 34.303 136.493 32.426C134.473 31.582 131.158 31.165 128.472 31.417C125.313 31.713 124.104 31.506 124.572 30.749C125.031 30.006 124.322 29.834 122.375 30.218C120.794 30.529 116.8 31.059 113.5 31.395C110.2 31.731 106.262 32.479 104.749 33.057C102.799 33.802 101.616 33.791 100.684 33.018C99.962 32.418 94.899 31.429 89.435 30.82C83.971 30.212 78.091 29.28 76.369 28.751C72.622 27.599 62.314 29.01 53.5 31.881C50.2 32.956 46.223 34.086 44.662 34.391C42.471 34.821 42.07 35.244 42.903 36.248C43.497 36.964 43.687 37.845 43.325 38.207C42.963 38.569 43.192 38.865 43.833 38.865C44.475 38.865 45 39.371 45 39.99C45 40.708 43.909 40.897 41.983 40.512C36.853 39.486 29.16 41.76 29.777 44.12C30.218 45.807 30.926 46.021 34.669 45.599C40.804 44.907 38.626 47.394 32.26 48.349C26.385 49.23 19 52.642 19 54.475C19 55.24 18.564 55.865 18.031 55.865C17.499 55.865 17.303 56.49 17.596 57.254C17.911 58.077 19.021 58.457 20.315 58.186C22.257 57.778 22.305 57.852 20.75 58.846C17.965 60.626 18.709 61.693 22.488 61.342C27.307 60.894 27.699 62.305 23.332 64.378C18.715 66.568 6.002 70.805 3.941 70.839C3.084 70.853 1.509 71.514 0.440995 72.307C-2.187 74.258 15.381 69.805 23.73 66.403C30.971 63.453 31.685 63.335 30 65.365C28.296 67.418 29.577 67.248 34.777 64.731C37.201 63.557 38.717 62.308 38.145 61.955C36.602 61.001 38.016 59.581 42.5 57.582L46.5 55.8L44 57.81C41.021 60.206 41.902 60.328 48.25 58.402C50.863 57.609 53 57.196 53 57.484C53 57.772 53.682 57.326 54.516 56.492C55.836 55.172 56.384 55.158 58.766 56.386C60.27 57.162 63.182 58.056 65.238 58.374C69.238 58.992 71.255 61.39 70.954 65.17C70.857 66.377 70.897 67.815 71.042 68.365C71.186 68.915 71.354 70.04 71.415 70.865C71.488 71.872 72.341 72.248 74.012 72.01L76.5 71.655L74.54 73.821C73.357 75.128 72.972 76.26 73.569 76.676C74.89 77.596 74.55 82.182 73.127 82.656C71.456 83.213 71.757 85.344 73.876 87.96C76.291 90.943 75.317 94.086 69.355 102.544C66.96 105.943 65 109.375 65 110.172C65 110.968 64.333 112.174 63.518 112.85C62.414 113.766 62.145 115.578 62.466 119.938C63.225 130.264 63.897 132.331 66.935 133.676C69.429 134.78 69.784 135.545 70.266 140.863C70.584 144.369 71.466 147.474 72.412 148.42C74.231 150.239 73.533 152.283 71.376 151.456C69.063 150.568 71.486 154.298 74.509 156.279C76.254 157.422 76.915 158.556 76.536 159.753C76.196 160.823 76.772 162.254 77.986 163.352C79.094 164.355 80 165.818 80 166.603C80 168.194 82.172 167.848 82.732 166.169C82.929 165.579 82.507 164.482 81.795 163.731C81.083 162.98 80.342 161.015 80.148 159.365C79.955 157.715 79.3 155.465 78.694 154.365C78.087 153.265 77.428 151.248 77.23 149.884C77.032 148.519 76.413 147.12 75.855 146.775C75.297 146.43 74.988 144.971 75.17 143.533C75.641 139.8 77.877 141.567 78.17 145.904C78.299 147.808 78.672 149.59 79 149.865C80.659 151.257 84 156.872 84 158.269C84 159.147 84.39 159.865 84.867 159.865C87.198 159.865 91.328 168.423 91.223 173.035C91.061 180.143 108.755 191.293 115.911 188.592C118.948 187.446 119.253 187.562 122.3 191.011C124.493 193.493 126.987 195.023 130.225 195.872C135.064 197.141 140.82 202.729 139.495 204.873C139.157 205.421 140.004 206.296 141.379 206.819C142.754 207.342 144.372 208.691 144.974 209.817C145.577 210.943 146.94 211.865 148.004 211.865C149.177 211.865 149.742 212.375 149.44 213.162C149.103 214.038 149.843 214.444 151.721 214.412C153.249 214.386 154.11 208.141 154.11 208.141C154.11 208.141 144.601 205.661 146.936 196.058C148.59 189.259 147.095 187.702 139.292 188.1C132.806 188.43 132.82 187.817 139.597 174.796C141.625 170.899 141.126 170.469 135.55 171.305C131.89 171.854 130.892 172.446 130.414 174.352C129.33 178.669 123.378 181.561 118.308 180.235C113.841 179.067 111.887 169.743 114.459 161.865C115.267 159.39 116.158 156.205 116.44 154.787C117.31 150.406 133 143.928 133 147.95C133 148.38 134.289 148.695 135.864 148.65C137.842 148.594 138.693 148.072 138.614 146.967C138.473 144.987 145.423 144.141 147.522 145.883C148.282 146.514 149.772 146.755 150.834 146.418C153.016 145.725 154.433 147.974 154.082 151.574C153.847 153.996 156.755 160.865 158.016 160.865C159.769 160.865 160.78 155.07 159.867 150.259C159.356 147.567 159.175 144.393 159.465 143.205C159.918 141.353 171.661 131.865 173.501 131.865C175.827 131.865 178.198 127.367 178.195 122.962C178.193 121.494 178.483 121.028 178.938 121.765C179.437 122.572 180.815 121.471 183.092 118.449C184.966 115.962 187.197 113.913 188.05 113.896C188.903 113.879 190.081 113.384 190.669 112.796C191.257 112.208 192.585 111.592 193.619 111.428C194.674 111.261 195.436 110.392 195.353 109.451C195.112 106.691 209.897 98.429 211.754 100.285C211.972 100.504 211.217 100.979 210.075 101.341C208.934 101.703 208 102.618 208 103.373C208 105.109 209.674 106.202 210.437 104.966C210.754 104.454 214.13 102.844 217.94 101.388C223.375 99.311 224.835 98.324 224.72 96.803C224.545 94.478 223.681 94.339 222 96.365C220.678 97.958 218.503 98.478 219.429 96.979C219.73 96.492 218.873 95.883 217.523 95.625C216.174 95.367 214.865 95.653 214.614 96.26C214.363 96.868 214.122 96.664 214.079 95.806C214.036 94.949 214.661 93.374 215.468 92.306C218.1 88.827 217.406 87.54 213.25 88.188C209.801 88.727 209.656 88.657 211.441 87.319C213.937 85.45 216.745 85.467 218.643 87.365C220.055 88.777 224 89.49 224 88.333C224 88.04 222.988 87.394 221.75 86.896C219.867 86.139 220.194 85.981 223.754 85.928C226.093 85.894 229.666 84.976 231.694 83.889C236.861 81.12 236.903 82.019 231.859 87.401C226.804 92.794 226.77 93.365 231.5 93.365C233.633 93.365 235 93.853 235 94.615C235 96.321 235.99 96.184 238.214 94.171C239.979 92.574 240.047 92.579 239.397 94.272C238.862 95.666 239.133 95.985 240.604 95.696C243.062 95.215 243.433 87.381 241 87.339C237.94 87.285 236.742 85.814 238.294 84.016C242.097 79.607 240.828 73.375 235.615 70.865C233.188 69.696 232.563 68.813 232.786 66.865C232.944 65.49 232.34 62.442 231.445 60.092L229.817 55.819L226.374 58.842C221.307 63.29 216.688 61.797 219.851 56.733C220.745 55.301 220.738 54.865 219.823 54.865C219.166 54.865 217.565 53.866 216.265 52.644C214.571 51.053 212.924 50.508 210.451 50.721C207.85 50.945 207 50.63 207 49.442C207 48.574 206.564 47.865 206.031 47.865C205.499 47.865 205.322 48.54 205.638 49.365C205.955 50.19 205.8 50.865 205.294 50.865C204.787 50.865 203.737 52.486 202.96 54.467C202.183 56.448 200.643 58.702 199.538 59.476C197.938 60.597 197.752 61.239 198.625 62.636C200.695 65.951 195.313 71.865 190.227 71.865C189.693 71.865 188.97 73.651 188.621 75.833C187.912 80.27 184.465 83.207 182.888 80.718C181.748 78.918 181.771 77.605 182.931 78.322C183.443 78.639 184.144 78.44 184.49 77.881C184.835 77.322 184.428 76.865 183.584 76.865C182.35 76.865 182.241 76.363 183.025 74.3C184.339 70.844 184.348 70.865 181.486 70.865C178.73 70.865 175.16 69.143 173.435 66.98C172.827 66.218 170.875 65.543 169.098 65.48C166.332 65.381 165.928 65.048 166.286 63.16C166.561 61.714 166.153 60.832 165.103 60.599C162.666 60.059 169.88 53.524 175.436 51.239C177.942 50.208 179.994 49.048 179.996 48.66C180.005 47.055 187.041 46.662 189.297 48.14C191.288 49.445 191.935 49.455 194.295 48.218C196.173 47.234 197.559 47.094 198.807 47.762C202.389 49.679 203.457 47.263 200.119 44.795C198.403 43.526 197.036 42.011 197.079 41.427C197.122 40.843 197.385 40.928 197.662 41.615C197.94 42.303 198.606 42.865 199.142 42.865C199.679 42.865 199.881 42.482 199.592 42.013C199.302 41.545 200.888 40.616 203.115 39.949C205.93 39.105 206.998 38.303 206.619 37.316C206.307 36.502 206.97 35.416 208.172 34.773C209.868 33.865 210.005 33.471 208.885 32.714C207.878 32.033 208.182 31.858 210 32.072C211.693 32.271 212.453 32.942 212.355 34.151C212.198 36.092 214.099 35.138 216.779 31.933C217.885 30.611 218.012 30.706 217.717 32.636C217.53 33.865 216.504 35.511 215.438 36.296C213.623 37.632 213.612 37.766 215.263 38.405C216.232 38.781 217.582 38.653 218.263 38.121C220.057 36.718 224 35.902 224 36.933C224 37.417 222.65 38.512 221 39.365C219.35 40.218 218 41.355 218 41.891C218 42.427 216.313 42.872 214.25 42.88C210.236 42.897 207.084 44.282 208.298 45.496C208.705 45.904 211.018 46.134 213.439 46.009C217.138 45.817 217.945 46.116 218.505 47.88C219.165 49.959 220.924 50.949 226.25 52.238C229.461 53.015 230.179 50.651 227.25 48.945C226.288 48.384 225.881 47.912 226.346 47.895C226.811 47.879 228.498 48.796 230.096 49.933C232.521 51.66 233 51.742 233 50.433C233 49.571 233.45 48.865 234 48.865C235.506 48.865 235.201 46.209 233.5 44.508C231.846 42.854 231.506 40.865 232.878 40.865C233.36 40.865 234.315 41.54 235 42.365C236.571 44.258 237.399 44.244 241.599 42.251C246.152 40.09 245.916 39.351 239.75 36.452C236.863 35.095 235.319 33.957 236.32 33.925C239.087 33.834 238.127 29.454 235.25 29.045C234.012 28.87 233 28.307 233 27.795C233 27.284 232.133 26.865 231.073 26.865C230.012 26.865 228.26 25.74 227.179 24.365C225.403 22.108 224.506 21.865 217.939 21.865C209.416 21.865 209.145 21.181 217.368 20.42C228.087 19.428 228.216 16.674 217.528 17.015C213.418 17.146 209.712 16.91 209.292 16.491C208.873 16.071 213.298 15.853 219.126 16.007C228.036 16.241 229.995 16.013 231.433 14.575C232.373 13.634 233.837 12.865 234.685 12.865C235.534 12.865 237.864 12.019 239.864 10.985C244.349 8.66499 253.816 6.86099 256.43 7.82899C257.772 8.32499 256.553 8.75999 252.477 9.23899C242.552 10.405 239.103 11.961 243.75 13.176C245.243 13.566 245.21 13.65 243.527 13.749C237.581 14.099 246.211 16.855 252.931 16.753C259.673 16.65 263.674 17.966 262.483 19.893C262.21 20.334 262.548 20.881 263.232 21.109C264.215 21.437 264.199 22.132 263.158 24.418C262.197 26.526 262.149 27.415 262.981 27.692C263.73 27.942 263.525 28.732 262.385 29.992C260.009 32.617 261.709 34.306 265.337 32.927C266.802 32.37 268 32.152 268 32.442C268 32.732 266.739 33.408 265.199 33.946C261.641 35.186 258.358 40.386 259.933 42.285C260.539 43.014 260.819 44.231 260.556 44.988C259.645 47.608 264.292 55.337 267 55.706C268.375 55.894 270.329 56.789 271.342 57.695C273.077 59.246 273.355 59.138 276.102 55.854C279.586 51.689 283.538 47.025 285.626 44.615C286.46 43.653 288.25 42.865 289.604 42.865C292.679 42.865 298.313 40.55 301.676 37.905C303.083 36.798 304.603 36.12 305.052 36.397C308.504 38.531 326.072 31.396 325.811 27.967C325.568 24.777 326.597 22.865 328.559 22.865C329.352 22.865 330 22.514 330 22.084C330 21.655 331.462 20.742 333.25 20.056L336.5 18.808L333.097 17.138C331.225 16.219 330.265 15.277 330.963 15.044C331.66 14.812 332.605 15.226 333.062 15.965C333.924 17.359 335.32 15.342 334.931 13.264C334.312 9.94999 335.329 9.01899 341.5 7.25099C350.084 4.79299 349.722 3.63099 340.498 4.03599C335.375 4.26099 332.996 4.00499 332.998 3.22999C333.002 0.913992 302.929 -0.0350072 294 1.99999Z" fill="black"/>
</svg>
