<svg width="153" height="141" viewBox="0 0 153 141" fill="none" xmlns="http://www.w3.org/2000/svg">
<g clip-path="url(#clip0_41_26)">
<path fill-rule="evenodd" clip-rule="evenodd" d="M57.2544 0.584993C56.2488 1.58597 57.6913 5.04315 59.5227 6.01729C60.5084 6.54213 61.6171 8.33931 61.987 10.0093C62.4358 12.045 63.2056 12.9804 64.3173 12.8442C65.23 12.7329 67.2134 13.1593 68.7259 13.7915C70.2384 14.4237 72.5867 15.372 73.9463 15.8998C77.2463 17.1801 78.281 21.352 75.9377 23.9265C74.2082 25.826 74.2522 25.8747 77.6961 25.8747C79.6375 25.8747 81.7869 26.5457 82.4717 27.3658C84.2921 29.5466 89.2056 29.2504 90.7011 26.8688C92.6305 23.7972 95.8875 24.4106 98.5877 28.3528C99.8953 30.2623 101.783 31.8279 102.781 31.8319C103.779 31.8359 105.41 32.2722 106.404 32.801C109.023 34.1937 112.246 30.7404 110.032 28.9134C109.217 28.2415 108.082 27.9801 107.508 28.3329C106.934 28.6858 106.464 28.4999 106.464 27.9214C106.464 27.3429 105.789 26.8688 104.965 26.8688C104.14 26.8688 103.465 26.2346 103.465 25.4602C103.465 24.6859 102.954 23.8827 102.33 23.676C99.3645 22.6929 103.751 19.1443 107.381 19.5896C113.462 20.3351 119.097 14.5638 115.711 11.0579C112.687 7.92679 108.464 6.13458 108.464 7.98246C108.464 8.52917 108.991 8.97647 109.634 8.97647C115.461 8.97647 113.722 15.9197 107.738 16.5499C106.212 16.7109 103.915 17.1035 102.631 17.4226C101.163 17.7874 100.534 17.6234 100.934 16.9803C101.312 16.3719 100.941 16.197 100.018 16.5489C99.0636 16.9137 98.4667 16.5966 98.4667 15.7268C98.4667 12.7766 77.4692 3.93582 75.1019 5.88906C74.0953 6.71906 73.5094 6.36321 72.5947 4.36722C71.1372 1.18737 70.0715 1.80167 71.3031 5.11075C72.3558 7.93673 71.81 9.97049 69.9995 9.97049C68.541 9.97049 67.4763 7.82839 67.4763 4.89405C67.4763 2.5611 62.7228 0.383207 61.1153 1.98158C59.5907 3.49746 58.4551 3.23603 59.1169 1.52136C59.6717 0.0840092 58.4011 -0.554149 57.2544 0.584993ZM84.0872 38.5484C80.4603 51.0581 79.9724 52.1943 78.077 52.5551C76.6375 52.8285 76.3396 52.5054 76.8384 51.2122C77.3303 49.9389 77.0963 49.6625 75.9137 50.1138C73.8523 50.9001 67.4193 46.0642 68.1181 44.2541C68.406 43.5086 69.2787 43.1418 70.0585 43.439C70.8373 43.7362 71.4751 43.4847 71.4751 42.8794C71.4751 42.274 71.0152 41.779 70.4524 41.779C69.8895 41.779 70.1665 40.6607 71.0672 39.294C71.9679 37.9272 72.5407 36.7642 72.3398 36.7105C72.1389 36.6558 69.9845 36.4431 67.5513 36.2383C65.119 36.0326 62.6668 35.4064 62.1029 34.8457C60.6914 33.4422 54.7632 33.5615 53.8625 35.0107C53.4576 35.6618 53.6755 36.3765 54.3473 36.5992C55.404 36.9491 54.1564 39.1727 49.8157 44.6726C49.6388 44.8962 48.6241 44.2968 47.5604 43.3396C45.0112 41.0464 42.6 41.8983 37.6175 46.8515C35.4102 49.0462 33.2408 50.754 32.796 50.6466C32.3511 50.5393 31.5374 51.2997 30.9875 52.3364C28.2594 57.4795 26.5169 58.8095 20.1299 60.6255C16.486 61.6623 12.2233 63.4167 10.6558 64.5261C8.50046 66.0529 7.52676 66.2636 6.65203 65.3938C6.01523 64.7606 5.4604 64.4445 5.41841 64.6911C5.18348 66.0568 4.43071 72.4792 4.22978 74.83C4.09882 76.3548 3.39603 77.5636 2.63926 77.5636C1.74254 77.5636 1.52361 78.153 1.99446 79.3031C4.08182 84.4074 3.77092 96.585 1.47462 99.6735C-2.55214 105.09 2.1984 108.191 9.31721 104.793C11.3386 103.827 14.7275 103.1 16.8479 103.174C19.3491 103.263 21.6864 102.589 23.4998 101.256C25.0374 100.125 28.0264 98.8494 30.1408 98.42C32.2561 97.9906 36.1319 97.2043 38.7541 96.6725C41.4503 96.1258 43.7556 96.0831 44.0615 96.5751C44.3584 97.0532 45.4261 97.4439 46.4338 97.4439C48.2562 97.4439 49.3199 99.7301 50.3296 105.817C50.4125 106.323 51.6062 105.686 52.9808 104.402C55.9398 101.638 56.3797 102.513 53.4806 105.396C50.6845 108.176 50.9224 109.727 54.0264 108.953C57.2414 108.15 58.9689 109.079 57.5104 110.825C54.9422 113.903 60.9953 117.981 66.2027 116.682C67.7632 116.292 68.9918 116.545 69.4977 117.36C70.1485 118.407 70.7733 118.353 72.7297 117.078C74.0633 116.209 77.0263 114.997 79.3126 114.385C81.5999 113.773 83.4714 112.784 83.4714 112.188C83.4714 111.592 87.2102 107.248 91.7808 102.534C101.554 92.4559 103.432 89.6935 105.045 83.0307C105.707 80.2971 106.598 77.2047 107.026 76.158C107.581 74.8012 107.461 74.4662 106.61 74.9891C105.826 75.4702 104.724 74.162 103.395 71.176C102.283 68.6751 100.943 66.6294 100.419 66.6294C99.8953 66.6294 99.4654 65.3998 99.4634 63.8958C99.4614 61.9665 98.5797 60.5768 96.4674 59.1743C93.6812 57.3234 93.4743 56.7608 93.4713 51.0303C93.4693 46.1049 93.0874 44.609 91.5639 43.5473C90.3912 42.7303 89.3865 40.4162 88.9507 37.5266C87.993 31.1768 86.1096 31.5724 84.0872 38.5484ZM143.453 108.003C143.453 113.226 141.403 117.324 138.789 117.324C137.638 117.324 137.398 117.958 137.86 119.787C138.501 122.331 134.998 124.354 132.552 122.85C131.992 122.506 129.38 123.716 126.747 125.537C124.114 127.358 119.485 129.882 116.461 131.144C105.021 135.921 102.721 138.083 107.012 140.028C109.871 141.323 112.924 140.181 118.091 135.885C119.669 134.573 122.084 133.155 123.459 132.733C124.834 132.312 126.183 131.689 126.458 131.35C128.196 129.204 135.211 124.855 136.566 125.083C137.462 125.234 140.165 123.881 142.573 122.077C144.981 120.272 148.189 118.007 149.701 117.043C152.943 114.976 153.669 111.635 150.512 113.316C148.435 114.421 146.818 113.184 147.952 111.36C148.291 110.813 148.062 110.366 147.444 110.366C146.807 110.366 146.57 109.575 146.899 108.545C147.259 107.417 146.714 106.034 145.466 104.912C143.474 103.119 143.453 103.152 143.453 108.003ZM72.4748 120.637C72.4748 122.394 68.362 123.548 65.049 122.721C62.9177 122.189 62.4988 122.559 61.6101 125.757C60.6124 129.349 60.9813 132.234 62.4368 132.234C65.8678 132.234 75.6788 121.164 73.4585 119.799C72.9176 119.467 72.4748 119.844 72.4748 120.637Z" fill="black"/>
</g>
<defs>
<clipPath id="clip0_41_26">
<rect width="153" height="141" fill="white"/>
</clipPath>
</defs>
</svg>
