<svg width="125" height="205" viewBox="0 0 125 205" fill="none" xmlns="http://www.w3.org/2000/svg">
<g clip-path="url(#clip0_41_12)">
<path d="M7.67139 11.6867C7.67139 11.6867 8.6484 12.8767 7.4744 12.2057C6.6424 11.7297 6.9604 12.6887 8.2244 14.4637C9.6954 16.5287 10.4214 19.0187 10.4214 21.9977C10.4214 26.3617 10.0394 27.0637 4.0344 33.7397C1.3224 36.7537 -0.131611 42.6237 1.27439 44.8757C2.34339 46.5877 2.30138 47.2147 1.02738 48.6227C-0.91262 50.7667 -0.107615 54.1107 3.46338 58.7397C5.64538 61.5677 11.4274 72.2477 15.3744 80.7397C15.7584 81.5647 18.2884 83.6907 20.9964 85.4647C32.8724 93.2427 32.4124 92.1607 33.0054 113.726C33.2554 122.809 33.7234 133.185 34.0444 136.785C34.3654 140.386 34.1884 144.924 33.6514 146.87C32.9364 149.458 33.0224 151.058 33.9694 152.825C34.6814 154.153 35.5674 158.246 35.9374 161.919C36.3384 165.898 37.1294 168.798 37.8954 169.092C38.8484 169.457 39.0554 168.634 38.6964 165.912C38.0684 161.146 39.0494 162.086 39.8204 166.99C40.2714 169.856 40.0724 170.74 38.9754 170.74C38.1854 170.74 37.2184 171.26 36.8264 171.895C36.3704 172.631 36.5534 172.777 37.3304 172.296C38.2454 171.731 38.3804 172.441 37.8734 175.142C37.3164 178.112 37.4914 178.74 38.8774 178.74C40.1024 178.74 40.3844 179.282 39.9204 180.743C37.3764 188.759 62.9224 210.156 67.4214 203.778C67.6964 203.388 68.7764 202.602 69.8204 202.031C71.5194 201.103 71.3334 200.866 68.0524 199.783C63.7384 198.36 56.7114 190.05 58.3974 188.364C58.9604 187.801 59.4214 186.516 59.4214 185.509C59.4214 184.501 60.0964 183.418 60.9214 183.102C63.4584 182.128 62.6034 179.247 59.4214 178.046C55.9414 176.733 55.4664 174.223 58.5454 173.418C60.2594 172.97 60.5444 172.364 60.0204 170.279C59.5614 168.448 59.8164 167.526 60.8964 167.111C63.0664 166.279 62.7884 163.74 60.5284 163.74C59.4874 163.74 58.3954 163.115 58.1024 162.351C57.7104 161.329 58.4104 160.998 60.7454 161.101C63.6874 161.23 63.9174 161.006 63.8694 158.056C63.8414 156.305 64.0664 154.936 64.3694 155.013C72.5244 157.1 78.5614 147.325 72.0384 142.598C71.5504 142.244 73.2024 142.186 75.7084 142.469L80.2644 142.982L82.7984 137.983C84.1914 135.233 85.0144 132.632 84.6264 132.201C84.2384 131.771 84.4644 131.731 85.1274 132.111C86.8844 133.12 91.8554 122.117 91.5684 117.854C91.3114 114.036 94.5024 109.74 97.5954 109.74C98.5994 109.74 99.4214 109.31 99.4214 108.785C99.4214 108.26 101.097 107.516 103.146 107.132C107.151 106.38 109.421 104.709 109.421 102.511C109.421 101.757 109.84 100.712 110.351 100.19C112.142 98.3617 114.398 85.8537 113.768 81.2527C113.353 78.2297 113.517 76.7397 114.265 76.7397C114.878 76.7397 116.308 75.0527 117.441 72.9897C118.574 70.9277 120.644 67.6647 122.041 65.7397C125.638 60.7827 124.152 51.7397 119.74 51.7397C118.95 51.7397 116.548 50.3287 114.401 48.6037C110.839 45.7407 108.13 44.9117 100.659 44.3957C99.4154 44.3097 98.1784 43.5507 97.9114 42.7087C97.6444 41.8667 95.2874 40.5727 92.6734 39.8327C86.5534 38.1017 83.1284 35.9457 83.7834 34.2387C84.0694 33.4947 83.6664 32.3577 82.8884 31.7127C82.1104 31.0667 81.1914 29.1217 80.8454 27.3897C79.9784 23.0427 75.3564 19.5897 69.6064 18.9937C65.8184 18.6007 64.2514 17.7947 61.4214 14.7837C59.4964 12.7357 57.2874 10.8517 56.5134 10.5977C55.6644 10.3177 55.1424 8.86574 55.1964 6.93674C55.2914 3.61274 54.0594 2.63473 53.0594 5.23973C52.7434 6.06473 51.9074 6.73273 51.2024 6.72473C50.3064 6.71373 50.3724 6.41773 51.4214 5.73973C52.5904 4.98473 52.3144 4.76673 50.1714 4.75473C48.6584 4.74673 47.4114 4.17773 47.3994 3.48973C47.3874 2.80273 46.5994 3.24073 45.6494 4.46373C44.3824 6.09373 43.5214 6.43173 42.4214 5.72873C41.5964 5.20173 39.8894 4.76373 38.6274 4.75473C37.3664 4.74673 35.1174 3.61173 33.6304 2.23273C31.8064 0.541728 30.7954 0.134728 30.5234 0.982728C30.0784 2.37373 28.3964 3.70073 27.0494 3.72473C26.5694 3.73273 26.7454 3.05373 27.4414 2.21573C28.1374 1.37773 28.4464 0.430733 28.1274 0.112733C27.1544 -0.860267 16.3574 4.73473 15.7174 6.54373C14.1404 11.0027 7.67139 11.6867 7.67139 11.6867Z" fill="black"/>
</g>
<defs>
<clipPath id="clip0_41_12">
<rect width="125" height="205" fill="white"/>
</clipPath>
</defs>
</svg>
